<svg height="20" width="20" id="Capa_1" data-name="Capa 1" xmlns="http://www.w3.org/2000/svg" viewBox="0 0 296 263.5"><defs><style>.cls-1{fill:#fff;}</style></defs><polygon class="cls-1" points="157.8 220.5 164.87 220.5 161.33 211.12 157.8 220.5"/><path class="cls-1" d="M131.18,221.75H125v10h6.18a5,5,0,0,0,0-10Z" transform="translate(0 -16.25)"/><path class="cls-1" d="M279.56,83.64,164.29,20.1a35.11,35.11,0,0,0-32,0L16.76,83.64C7.19,88.91,0,100.67,0,111.6V254.9c0,13.78,11.71,24.85,25.5,24.85H271.17A24.76,24.76,0,0,0,296,254.9V111.6C296,100.67,289.14,88.91,279.56,83.64Zm-75,153.94a2.86,2.86,0,0,1-2.59,1.17h-.1a3.66,3.66,0,0,1-3-1.17l-6.81-9v20.56a3.5,3.5,0,0,1-7,0v-31c0-1.84,2.13-3.4,4-3.4h.16a3.33,3.33,0,0,1,2.73,1.44l10,13.92,10.05-13.94a3.18,3.18,0,0,1,2.67-1.41,3.41,3.41,0,0,1,3.39,3.39v31a3.53,3.53,0,0,1-3.52,3.39,3.47,3.47,0,0,1-3.48-3.39V228.57Zm-52.41-46.36a7.49,7.49,0,0,1-7.53,0L25.75,122.75A7.5,7.5,0,0,1,23,112.51a7.31,7.31,0,0,1,10.08-2.76L93,144.39V133.25a7.79,7.79,0,0,1,7.83-7.5h15.65a33.22,33.22,0,0,1-.33-16H100.83a7.79,7.79,0,0,1-7.83-7.5V80.75a7.5,7.5,0,0,1,15,0v14h15.89a33.46,33.46,0,0,1,9-7.1L117.47,69A7.5,7.5,0,0,1,129,59.47l19.72,23.86,19.72-23.86A7.5,7.5,0,1,1,180,69L164.7,87.58a34.18,34.18,0,0,1,9.08,7.17H187v-14a7.5,7.5,0,0,1,15,0v21.5a7.22,7.22,0,0,1-7.17,7.5H181.52a34,34,0,0,1,.81,7.33,33.52,33.52,0,0,1-1.14,8.67h13.64a7.22,7.22,0,0,1,7.17,7.5v11.17l60.71-35.48a7.6,7.6,0,0,1,10.34,2.68,7.49,7.49,0,0,1-2.63,10.27Zm22,61.12a3.31,3.31,0,0,1-1.18.19,3.38,3.38,0,0,1-3.14-2.23l-2.45-6.55H155.32l-2.45,6.56a3.42,3.42,0,1,1-6.4-2.39L158.08,217a3.45,3.45,0,0,1,3.14-2.17h.24a3.38,3.38,0,0,1,3.12,2.15l11.62,30.95A3.49,3.49,0,0,1,174.17,252.34ZM143,226.3a11.56,11.56,0,0,1-11.8,11.45H125v11.39a3.5,3.5,0,0,1-7,0v-31a3.76,3.76,0,0,1,3.78-3.4h9.4A11.61,11.61,0,0,1,143,226.3Zm-41.65,13.12A4.46,4.46,0,0,0,99.91,238a20.76,20.76,0,0,0-7-2.4h0a28.65,28.65,0,0,1-7-2.09,11.79,11.79,0,0,1-5.09-4.29,8.55,8.55,0,0,1-1.29-4.57,10.15,10.15,0,0,1,4.41-8.07,16.07,16.07,0,0,1,9.38-2.88c5.11,0,8.85,2.42,11.59,4.19l.14.09a3.27,3.27,0,0,1,1.35,2,3.25,3.25,0,0,1-3.13,3.84,3.2,3.2,0,0,1-1.77-.54c-2.69-1.79-5.16-3.28-8.18-3.28a9.54,9.54,0,0,0-5.58,1.69,3.76,3.76,0,0,0-1.8,2.91,2,2,0,0,0,.3,1.21,4.28,4.28,0,0,0,1.27,1.22,17.84,17.84,0,0,0,6.38,2.23h0a30.76,30.76,0,0,1,7.47,2.25,12.67,12.67,0,0,1,5.46,4.55,9,9,0,0,1,1.33,4.73,10.89,10.89,0,0,1-4.72,8.69,17.08,17.08,0,0,1-10,3.22h0c-5.82,0-10.69-3.08-13.75-5.5a3.38,3.38,0,0,1-.51-4.6,3.26,3.26,0,0,1,2.5-1.21,3.09,3.09,0,0,1,2,.55,16.66,16.66,0,0,0,9.59,3.76h.12a10.71,10.71,0,0,0,6.28-1.69,4.12,4.12,0,0,0,2-3.3A2.18,2.18,0,0,0,101.33,239.42Z" transform="translate(0 -16.25)"/><path class="cls-1" d="M187,153.21V140.75H172.52a33.45,33.45,0,0,1-47.37,0H108V153l40,23Z" transform="translate(0 -16.25)"/></svg>